<?xml version="1.0" standalone="no"?>
<!DOCTYPE svg PUBLIC "-//W3C//DTD SVG 20010904//EN"
 "http://www.w3.org/TR/2001/REC-SVG-20010904/DTD/svg10.dtd">
<svg version="1.0" xmlns="http://www.w3.org/2000/svg"
 width="512.000000pt" height="512.000000pt" viewBox="0 0 512.000000 512.000000"
 preserveAspectRatio="xMidYMid meet">
<metadata>
Created by potrace 1.14, written by Peter Selinger 2001-2017
</metadata>
<g transform="translate(0.000000,512.000000) scale(0.100000,-0.100000)"
fill="#000000" stroke="none">
<path d="M494 4175 c-9 -36 2 -72 44 -140 21 -33 50 -89 66 -125 16 -36 46
-101 66 -145 24 -51 38 -95 38 -122 1 -24 3 -47 6 -51 9 -15 18 -100 20 -201
2 -54 6 -103 10 -109 4 -7 1 -18 -6 -25 -11 -12 -14 -11 -23 7 -6 12 -29 26
-55 33 -40 12 -47 11 -70 -5 -14 -11 -43 -22 -64 -26 -76 -14 -460 -220 -500
-267 -59 -70 -17 -88 67 -28 64 45 505 269 530 269 8 0 17 -9 20 -20 3 -11 17
-24 31 -30 14 -5 27 -15 28 -22 0 -7 2 -20 2 -28 1 -8 -11 -40 -26 -71 -34
-67 -49 -158 -35 -219 2 -8 7 -29 11 -47 5 -22 3 -39 -9 -56 -38 -59 -49 -175
-20 -207 24 -26 70 -8 102 41 17 26 33 39 49 39 12 0 36 8 53 17 25 15 35 16
62 6 27 -10 38 -10 68 4 20 9 45 24 56 33 11 10 34 25 50 35 17 10 23 11 13 3
-10 -8 -15 -18 -11 -22 4 -3 17 4 30 16 13 12 23 17 23 12 0 -5 4 -4 8 3 6 9
11 6 21 -8 7 -12 8 -18 2 -14 -6 3 -11 2 -11 -3 0 -11 30 -25 38 -17 3 3 0 5
-5 5 -6 0 -10 8 -9 18 2 9 -2 20 -8 24 -8 5 -7 11 2 20 8 7 12 9 11 3 -1 -5 3
-21 9 -35 9 -22 11 -22 12 -5 0 15 2 17 9 7 7 -11 9 -11 14 2 4 9 12 14 19 12
7 -1 10 -1 5 1 -4 3 -7 9 -7 14 0 6 4 7 10 4 6 -3 7 1 4 9 -3 9 -10 16 -16 16
-5 0 -7 -3 -4 -8 6 -9 -15 -36 -32 -39 -6 -2 -12 2 -12 7 0 6 8 10 18 10 15 1
15 2 -3 17 -16 12 -16 14 -3 10 12 -4 30 6 55 29 35 33 36 37 20 49 -16 12
-16 13 -1 19 9 4 19 4 22 1 3 -3 0 -5 -7 -5 -7 0 -10 -4 -6 -10 3 -5 12 -7 19
-4 8 3 16 -4 19 -16 3 -12 10 -19 15 -16 5 3 17 -3 27 -14 15 -17 16 -22 4
-37 -12 -15 -12 -16 3 -10 10 3 20 1 24 -5 4 -7 3 -8 -4 -4 -7 4 -12 2 -12 -4
0 -6 -4 -8 -10 -5 -11 7 -3 -23 11 -41 5 -6 6 -14 2 -17 -8 -9 17 -38 27 -32
5 3 16 -5 26 -17 14 -20 16 -21 10 -3 -6 19 -5 19 8 1 9 -11 20 -15 28 -10 7
4 10 4 6 -1 -4 -4 2 -16 14 -26 11 -11 19 -19 17 -20 -2 0 -14 -2 -27 -5 -24
-4 -177 50 -187 67 -9 14 -78 10 -99 -6 -12 -9 -19 -26 -18 -44 0 -24 -11 -42
-52 -82 -48 -48 -56 -52 -105 -55 -33 -2 -60 -9 -72 -20 -37 -33 -14 -147 24
-116 8 7 17 26 21 44 6 29 8 30 40 25 22 -3 37 -1 40 6 2 7 2 -15 -1 -47 -3
-33 -14 -73 -23 -90 -18 -32 -19 -81 -1 -99 6 -6 2 -16 -12 -28 -21 -16 -22
-25 -19 -126 4 -159 -2 -188 -40 -204 -17 -7 -44 -24 -60 -38 -17 -13 -44 -32
-61 -40 -37 -20 -36 -37 3 -34 l30 2 -15 -30 c-18 -33 -7 -37 31 -13 14 10 24
13 23 8 -5 -28 2 -45 19 -42 12 2 17 13 17 40 0 37 8 48 87 113 30 25 44 50
73 129 33 91 47 179 31 204 -3 5 5 17 19 26 16 11 30 35 41 74 9 31 22 68 29
82 17 33 28 100 29 167 1 29 4 53 8 53 3 0 26 -17 49 -39 24 -21 62 -49 86
-62 41 -23 44 -23 75 -7 18 9 44 20 58 24 13 4 33 17 43 30 10 13 25 24 33 24
8 0 14 4 14 8 0 5 7 9 15 9 11 0 12 -4 3 -14 -9 -11 -7 -12 7 -7 14 6 16 4 10
-6 -6 -10 -4 -12 8 -7 9 3 19 2 22 -3 4 -6 12 -10 18 -10 7 0 6 4 -3 11 -12 9
-12 10 3 5 10 -3 21 -6 23 -6 3 0 3 -4 -1 -9 -3 -5 0 -13 6 -17 7 -4 9 -3 5 4
-3 6 -2 13 4 17 5 3 10 2 10 -3 0 -6 7 -13 16 -16 14 -5 15 -4 5 8 -10 12 -9
14 8 9 13 -3 18 -11 14 -21 -4 -15 -3 -15 6 -2 10 13 12 13 21 0 8 -12 10 -10
10 10 0 19 3 22 9 11 8 -12 12 -12 24 -2 12 10 17 9 24 -1 4 -7 18 -13 30 -14
16 0 20 3 13 11 -6 7 -3 11 11 11 14 0 18 -5 14 -21 -5 -15 -2 -14 9 5 9 14
15 20 16 13 0 -7 11 -29 25 -49 14 -20 25 -45 25 -55 0 -10 -42 -60 -92 -111
-95 -95 -110 -117 -175 -248 -20 -41 -45 -85 -56 -97 -12 -14 -20 -38 -21 -62
-1 -32 -9 -48 -37 -78 -20 -21 -52 -61 -72 -89 -41 -60 -115 -231 -124 -289
-3 -22 -14 -51 -25 -64 -10 -13 -18 -30 -18 -37 0 -16 -8 -18 -66 -15 -27 2
-45 -3 -53 -13 -8 -9 -21 -16 -31 -16 -23 0 -66 -35 -73 -59 -8 -33 7 -44 29
-20 l19 21 5 -43 5 -44 20 33 c23 38 38 37 45 -4 8 -46 35 -37 36 11 0 39 1
40 35 37 27 -2 40 3 63 27 17 18 26 36 23 45 -4 10 -1 16 6 16 7 0 23 9 35 20
17 16 20 25 12 45 -9 23 -8 24 15 13 25 -11 36 -5 121 80 65 65 130 203 140
297 6 63 11 78 24 70 16 -10 86 62 129 134 23 38 67 126 97 196 30 70 61 137
69 149 8 12 17 41 20 65 13 107 17 147 17 166 -1 16 1 17 8 5 5 -8 7 -17 5
-20 -2 -3 6 -7 17 -7 29 -3 33 -10 17 -30 -7 -10 -10 -15 -5 -11 10 8 36 -15
36 -33 0 -8 3 -9 14 0 11 9 12 6 8 -15 -3 -19 -1 -25 7 -20 6 4 8 13 4 19 -4
7 0 6 10 -2 9 -7 17 -19 17 -27 0 -14 20 -22 67 -26 17 -1 29 -6 26 -12 -4 -5
1 -7 11 -3 9 4 15 3 12 -2 -3 -5 3 -11 14 -14 11 -3 23 -1 26 4 4 6 10 6 18 0
9 -7 17 -7 26 2 8 8 11 8 7 1 -10 -18 17 -23 38 -8 15 11 20 11 27 1 6 -9 8
-8 8 3 0 13 1 13 10 0 8 -13 10 -13 10 2 0 9 9 20 20 23 11 3 20 11 20 17 0 6
3 8 7 4 4 -4 -3 -15 -16 -25 -18 -14 -21 -20 -11 -26 9 -6 11 -4 5 5 -6 10 -4
12 9 7 9 -4 15 -3 12 2 -3 5 1 14 9 21 7 6 11 19 8 27 -5 13 -1 15 19 11 15
-3 25 0 25 8 0 7 -7 10 -16 7 -13 -4 -13 -3 -2 5 7 5 22 7 33 4 16 -4 19 -10
14 -31 -4 -14 -9 -37 -11 -51 -3 -14 -8 -31 -10 -37 -16 -45 -23 -250 -12
-333 16 -118 52 -169 147 -205 l70 -27 -24 -29 c-43 -51 -42 -60 25 -192 73
-146 101 -185 143 -202 17 -7 51 -36 75 -64 24 -30 64 -62 94 -78 29 -14 54
-29 57 -33 7 -10 58 -36 118 -61 l53 -22 -21 -22 c-11 -12 -20 -27 -20 -33 0
-17 25 -15 40 3 12 14 15 13 35 -5 30 -28 45 -25 45 10 0 24 4 30 18 28 11 -2
18 4 20 19 3 18 -7 29 -43 52 -26 16 -52 28 -59 25 -26 -10 -155 84 -148 109
1 5 -4 19 -12 32 -9 14 -13 41 -11 76 1 30 -4 79 -12 109 -13 53 -138 275
-168 300 -13 11 -12 16 10 41 25 30 45 86 45 126 0 12 5 25 10 28 6 3 10 -1
10 -10 0 -9 5 -13 10 -10 6 3 10 -1 10 -9 0 -14 12 -20 33 -17 4 0 7 -4 7 -10
0 -6 7 -17 15 -25 10 -11 15 -12 15 -3 0 7 7 4 18 -7 24 -26 67 -51 56 -32 -4
7 2 5 13 -5 11 -9 23 -14 26 -10 4 3 7 1 7 -6 0 -6 6 -11 13 -10 23 3 38 -1
33 -9 -2 -4 7 -8 22 -9 63 -1 95 -11 118 -36 14 -15 22 -27 19 -27 -3 0 -1 -9
5 -20 6 -11 17 -20 25 -20 7 0 17 -9 20 -20 3 -11 11 -20 17 -20 6 0 17 -8 25
-17 10 -12 12 -13 8 -3 -4 10 -2 9 8 -3 8 -9 19 -17 26 -17 6 0 11 -4 11 -10
0 -5 9 -10 20 -10 11 0 20 -4 20 -8 0 -4 12 -9 26 -10 15 -1 32 -6 39 -12 6
-5 15 -7 19 -3 10 11 36 12 36 2 0 -5 7 -9 15 -9 8 0 19 -9 25 -20 6 -11 17
-20 24 -20 8 0 17 -7 20 -16 3 -8 10 -12 16 -9 5 3 10 1 10 -4 0 -6 3 -10 8
-9 4 1 18 -3 32 -9 42 -18 110 -31 110 -21 0 5 7 5 18 0 9 -5 23 -7 30 -5 6 3
12 -1 12 -9 0 -10 3 -9 10 2 9 13 10 13 10 0 0 -13 1 -13 10 0 5 8 10 10 10 4
0 -6 10 -10 23 -10 12 1 27 0 32 -3 12 -7 76 -11 180 -12 160 0 225 13 225 46
0 8 4 15 8 15 5 0 9 6 9 13 1 6 2 33 4 59 1 26 6 45 12 41 5 -3 4 4 -2 16 -9
16 -9 21 1 21 9 0 9 3 -2 10 -8 5 -10 10 -5 10 17 0 3 154 -16 176 -6 8 -6 14
0 18 7 5 8 41 1 41 -1 0 -4 27 -6 60 -3 33 -11 72 -19 87 -9 20 -10 28 -1 32
7 3 7 5 -2 5 -7 1 -10 6 -7 11 3 6 2 10 -3 10 -5 0 -15 19 -23 42 -7 24 -21
50 -29 59 -44 49 -59 72 -53 81 3 6 1 8 -4 5 -6 -4 -16 0 -23 8 -7 8 -9 15 -4
15 5 1 -4 8 -19 16 -18 10 -27 21 -23 30 4 10 2 12 -6 8 -8 -5 -9 -2 -5 9 3
10 2 17 -3 17 -5 0 -7 7 -4 15 4 9 0 15 -7 15 -11 0 -11 2 1 10 12 8 12 10 -2
15 -10 4 -15 16 -13 30 1 13 -4 26 -12 29 -8 3 -12 10 -9 15 4 5 2 11 -3 13
-5 1 -11 10 -13 18 -2 8 -14 27 -28 41 -14 14 -30 34 -35 44 -6 10 -13 16 -15
14 -8 -6 -50 35 -50 49 0 7 -4 11 -8 8 -5 -3 -26 10 -47 29 -21 19 -41 35 -46
35 -5 0 -9 3 -9 8 0 4 -14 16 -30 27 -17 11 -28 26 -25 33 3 8 0 10 -7 6 -8
-5 -9 -2 -5 9 5 13 1 17 -16 17 -18 0 -19 2 -7 10 13 8 12 10 -4 10 -11 0 -17
3 -14 6 3 3 -14 25 -38 48 -24 24 -40 46 -37 50 4 4 -1 4 -12 0 -15 -6 -17 -4
-12 10 4 9 3 15 -2 12 -5 -3 -12 1 -15 10 -3 9 -11 12 -18 8 -7 -5 -9 -2 -5 8
4 12 0 15 -19 13 -14 -1 -23 0 -20 2 7 7 -18 32 -26 26 -5 -2 -8 1 -8 7 0 7
-6 10 -14 7 -8 -3 -17 1 -20 9 -3 9 -10 12 -16 9 -5 -3 -10 -1 -10 4 0 6 -9
11 -20 11 -11 0 -20 5 -20 10 0 6 -9 10 -21 10 -13 0 -18 4 -13 13 5 8 2 8 -9
-2 -12 -9 -17 -10 -17 -2 0 7 -5 9 -12 5 -7 -5 -9 -2 -5 9 4 11 2 14 -9 10 -8
-3 -14 1 -14 9 0 7 -9 20 -20 28 -11 8 -20 20 -20 28 0 7 -4 10 -10 7 -11 -7
-60 23 -60 36 0 5 8 6 18 3 14 -5 14 -4 2 4 -9 7 -19 7 -25 2 -7 -6 -16 -5
-23 2 -9 9 -12 9 -12 -2 0 -8 -8 -3 -18 13 -10 15 -22 24 -25 20 -10 -10 -8 5
4 30 10 21 10 21 -5 3 -9 -11 -23 -21 -32 -22 -11 -2 -12 1 -5 10 8 9 7 13 -4
14 -8 1 -22 3 -30 4 -8 1 -17 8 -20 17 -5 13 -7 14 -16 1 -8 -12 -9 -9 -5 10
4 22 4 23 -8 8 -16 -22 -26 -23 -26 -3 0 8 -6 15 -12 16 -7 0 -4 5 7 10 l20 9
-20 -3 c-12 -2 -19 -9 -17 -19 2 -12 -3 -15 -17 -11 -18 5 -18 7 -6 20 20 19
19 29 0 13 -8 -7 -15 -9 -15 -4 0 5 -5 2 -10 -6 -5 -8 -10 -10 -10 -5 0 6 -12
10 -27 9 -16 0 -31 4 -35 10 -5 8 -8 7 -8 -2 0 -10 -5 -10 -20 -2 -15 8 -20 8
-20 -2 0 -10 -2 -10 -9 1 -6 9 -11 10 -15 2 -4 -6 -13 -8 -19 -4 -20 12 -37
12 -37 0 0 -8 -3 -7 -9 2 -6 9 -10 10 -16 2 -5 -9 -11 -9 -23 1 -9 7 -13 8 -9
2 4 -7 -3 -12 -18 -13 -58 -4 -65 -6 -65 -16 0 -5 -4 -4 -9 4 -7 11 -13 10
-33 -3 -14 -9 -28 -13 -31 -9 -4 3 -7 0 -8 -8 0 -8 -4 -6 -9 6 -8 19 -9 19 -9
1 -1 -11 -4 -17 -7 -13 -4 3 -20 -1 -36 -9 -16 -9 -36 -13 -43 -10 -7 2 -23
-3 -35 -11 -23 -16 -72 -23 -98 -15 -10 3 -8 10 5 26 11 13 12 16 3 9 -10 -7
-21 -8 -30 -3 -8 5 -18 6 -22 4 -4 -3 -5 3 -1 13 6 16 5 17 -13 3 -10 -8 -5 1
11 19 54 60 76 81 85 81 6 0 10 4 10 9 0 5 14 14 30 21 17 7 33 17 37 23 4 6
-18 -3 -49 -20 -31 -18 -59 -29 -62 -25 -4 3 -4 -1 -1 -10 4 -11 0 -18 -14
-23 -12 -3 -21 -11 -21 -16 0 -6 -7 -17 -15 -25 -8 -9 -15 -12 -15 -8 0 3 -6
2 -13 -5 -10 -8 -17 -7 -25 1 -9 9 -12 9 -12 0 0 -7 -4 -12 -10 -12 -15 0 23
59 42 64 13 3 16 10 11 22 -4 11 -3 15 5 10 7 -4 9 2 6 20 -5 25 -3 26 13 13
10 -7 15 -9 11 -5 -4 5 -2 16 5 25 10 14 10 14 -4 3 -17 -13 -23 -9 -44 27 -6
10 -4 12 5 6 9 -5 10 -2 6 13 -5 16 -3 21 11 20 26 -1 73 20 73 32 0 11 -22 9
-31 -3 -3 -4 -6 7 -6 25 0 18 2 27 5 20 3 -10 7 -10 18 -1 8 7 17 9 21 6 3 -4
13 -1 22 6 14 11 14 10 2 -6 -12 -15 -11 -17 7 -14 26 4 41 17 21 17 -12 0
-12 2 0 9 8 5 21 7 29 3 9 -3 13 -1 9 5 -4 7 0 10 10 8 10 -1 24 2 31 8 8 6
12 6 12 -2 0 -7 5 -9 11 -5 7 4 7 10 1 16 -6 6 -25 5 -53 -2 -48 -13 -53 -14
-119 -25 -25 -4 -49 -10 -55 -13 -5 -4 -19 -8 -30 -9 -11 -2 -44 -7 -73 -12
-34 -5 -55 -4 -59 2 -3 6 -1 7 5 3 7 -4 12 -2 12 3 0 15 -27 14 -33 -1 -3 -7
-6 -2 -7 12 -1 14 -4 19 -7 13 -2 -7 -9 -13 -14 -13 -6 0 -7 5 -3 12 5 7 3 8
-7 2 -25 -16 -39 -13 -60 14 l-20 26 5 -28 c3 -16 2 -25 -2 -21 -4 3 -7 12 -7
18 -1 7 -6 11 -13 9 -7 -1 -12 5 -12 13 0 9 -9 15 -21 15 -12 0 -28 8 -36 18
-8 9 -12 11 -8 5 3 -7 1 -13 -6 -13 -7 0 -9 9 -6 23 6 21 6 21 -8 3 -15 -19
-15 -19 -15 5 0 19 -2 21 -10 9 -9 -14 -15 -6 -10 15 1 5 -9 1 -21 -10 -12
-11 -19 -15 -16 -9 8 13 -19 27 -34 18 -5 -3 -9 0 -9 5 0 6 -5 11 -11 11 -6 0
-9 -7 -5 -15 7 -19 1 -19 -18 0 -8 8 -28 17 -44 19 -16 2 -35 7 -43 11 -11 6
-12 5 -1 -6 6 -7 12 -18 12 -23 0 -6 -4 -5 -9 3 -8 12 -13 12 -24 3 -11 -10
-17 -9 -27 3 -9 10 -9 15 -1 15 6 0 11 -5 11 -11 0 -5 5 -7 11 -3 8 5 6 10 -5
16 -13 7 -23 5 -38 -9 -12 -10 -18 -12 -14 -5 7 12 5 13 -59 17 -16 1 -31 7
-33 14 -3 9 -8 9 -20 -1 -12 -10 -14 -10 -8 0 5 8 0 12 -18 12 -13 0 -27 -6
-29 -12 -4 -10 -6 -10 -6 0 -1 6 -6 12 -12 12 -5 0 -7 -6 -3 -12 6 -10 4 -10
-7 -2 -8 6 -22 11 -31 11 -14 0 -15 -3 -7 -14 16 -18 4 -16 -15 3 -14 14 -16
14 -16 0 0 -12 -5 -14 -26 -6 -19 7 -23 7 -18 -2 5 -8 2 -9 -10 -5 -10 4 -15
3 -11 -3 3 -6 -1 -10 -10 -10 -11 0 -15 -5 -11 -15 4 -13 2 -14 -14 -5 -15 8
-20 8 -18 -1 2 -6 -3 -14 -11 -17 -9 -3 -11 0 -6 8 5 9 4 11 -3 6 -7 -4 -8
-15 -2 -30 6 -17 5 -23 -5 -23 -8 0 -12 4 -9 9 3 4 0 8 -5 8 -6 0 -11 6 -11
14 0 8 -7 16 -15 20 -13 5 -13 2 1 -18 10 -17 12 -26 4 -31 -6 -3 -10 -3 -9 2
3 19 -2 34 -10 28 -6 -3 -8 8 -6 25 4 27 3 29 -11 15 -21 -20 -30 -19 -13 2
11 13 11 17 1 20 -6 3 -9 10 -6 16 5 8 2 8 -7 0 -20 -19 -34 -16 -18 4 10 11
10 14 2 9 -12 -7 -18 5 -14 28 1 5 -4 4 -12 -2 -10 -8 -17 -8 -24 -1 -12 12
-36 3 -28 -11 3 -4 -2 -11 -11 -14 -25 -9 -27 -7 -13 11 8 9 9 14 2 10 -6 -4
-13 -1 -16 5 -3 7 -3 -3 -2 -22 4 -47 4 -47 14 -32 7 11 9 11 14 -1 4 -11 -2
-14 -24 -12 -17 1 -33 -3 -37 -11 -6 -10 -10 -9 -20 7 -9 14 -10 19 -2 14 9
-5 9 -1 0 16 -18 34 -24 38 -15 9 7 -23 6 -24 -9 -11 -13 11 -12 5 5 -23 l22
-39 -21 12 c-12 6 -21 15 -19 19 1 4 -7 18 -17 32 -11 14 -16 18 -13 8 4 -12
1 -18 -9 -18 -11 0 -14 5 -10 17 4 10 4 14 0 10 -4 -4 -14 -1 -23 5 -13 10
-14 10 -3 -2 19 -22 14 -29 -12 -17 -13 7 -22 16 -19 22 4 6 2 6 -3 2 -5 -5
-9 -14 -9 -20 -1 -7 -6 -11 -13 -9 -7 1 -12 -2 -12 -7 0 -5 -11 -8 -24 -7 -16
2 -23 -1 -19 -9 2 -7 -6 -20 -19 -29 -12 -9 -18 -16 -12 -16 5 0 15 5 22 12 9
9 12 9 13 -2 1 -8 1 -18 0 -22 0 -5 4 -8 11 -8 6 0 9 -3 6 -6 -4 -3 -16 -1
-27 5 -17 10 -20 9 -15 -4 6 -15 17 -19 41 -16 6 1 14 -2 17 -7 3 -5 -8 -8
-25 -6 -28 4 -30 2 -18 -13 10 -12 10 -14 2 -9 -8 4 -13 2 -13 -5 0 -7 -3 -9
-7 -6 -3 4 -11 3 -18 -1 -6 -4 -2 1 8 11 13 12 15 17 6 17 -12 0 -12 2 -1 9
11 7 10 9 -3 14 -9 4 -13 3 -10 -3 3 -6 0 -10 -7 -10 -9 0 -9 -3 2 -10 13 -9
7 -14 -13 -11 -4 0 -6 -2 -5 -6 2 -5 -1 -8 -7 -8 -5 0 -8 5 -7 10 2 5 0 6 -4
2 -11 -11 -14 -38 -3 -31 5 3 9 -1 9 -8 0 -9 3 -9 10 2 6 9 10 10 10 3 0 -6
-5 -15 -11 -19 -8 -4 -7 -9 2 -14 10 -7 10 -11 0 -24 -8 -9 -9 -16 -4 -16 5 0
9 -10 10 -21 1 -12 1 -20 -1 -18 -22 32 -36 60 -28 55 6 -3 9 2 7 11 -2 10 -4
23 -4 28 -1 6 -5 3 -10 -5 -6 -8 -7 -18 -5 -22 3 -4 0 -8 -5 -8 -6 0 -11 -5
-11 -11 0 -5 4 -8 8 -5 4 3 13 -8 19 -25 6 -16 7 -27 2 -23 -5 3 -9 0 -9 -6 0
-6 -4 -9 -8 -6 -12 7 -38 -12 -29 -21 5 -4 11 -3 15 2 9 12 32 18 33 8 0 -5 2
-16 4 -26 2 -10 -1 -14 -8 -10 -7 4 -8 0 -4 -11 4 -9 3 -15 -2 -11 -5 3 -12
-1 -14 -7 -4 -10 -6 -10 -6 0 -1 7 -5 11 -11 7 -5 -3 -6 -13 -3 -23 3 -9 3
-14 -1 -11 -11 10 -16 50 -5 44 5 -4 9 -1 9 4 0 6 -4 11 -8 11 -10 0 -13 21
-12 73 2 36 -14 117 -32 161 -11 28 -50 114 -87 191 -37 77 -83 174 -101 215
-49 110 -74 134 -86 85z m801 -345 c4 -6 11 -7 17 -4 7 4 8 2 4 -4 -4 -7 -3
-12 2 -12 5 0 9 -7 9 -15 0 -8 -4 -15 -9 -15 -4 0 -8 8 -8 18 0 14 -2 15 -10
2 -6 -10 -10 -11 -10 -2 0 6 -4 12 -10 12 -5 0 -7 -8 -4 -17 5 -15 4 -16 -5
-3 -8 11 -7 18 5 26 12 9 12 13 2 17 -9 4 -9 6 -1 6 6 1 15 -4 18 -9z m-240
-40 c4 -6 11 -7 17 -4 7 4 8 2 4 -5 -4 -6 -12 -9 -17 -6 -5 4 -9 1 -9 -6 0 -7
-7 -4 -16 7 -14 18 -15 18 -10 -6 3 -14 3 -19 0 -12 -8 16 -22 15 -41 -3 -18
-19 -39 -9 -22 11 6 7 15 12 19 9 4 -2 16 2 26 10 23 17 40 19 49 5z m70 -32
c2 -20 1 -20 -11 -3 -9 12 -18 15 -27 9 -7 -5 -4 -1 6 9 22 20 30 16 32 -15z
m232 14 c-9 -2 -15 -8 -12 -13 4 -5 1 -9 -4 -9 -14 0 -14 13 1 28 6 6 16 8 22
4 7 -4 4 -8 -7 -10z m647 -10 c3 -5 -1 -9 -9 -9 -8 0 -12 4 -9 9 3 4 7 8 9 8
2 0 6 -4 9 -8z m-994 -43 c0 -5 -4 -9 -8 -9 -5 0 -9 7 -9 15 0 8 4 12 9 9 4
-3 8 -9 8 -15z m1134 5 c3 -8 2 -12 -4 -9 -6 3 -10 10 -10 16 0 14 7 11 14 -7z
m-1221 -101 c-7 -2 -13 -9 -13 -14 0 -6 6 -7 13 -3 9 5 9 4 0 -6 -7 -8 -16
-11 -19 -7 -10 10 4 37 18 36 10 0 10 -2 1 -6z m1637 -28 c0 -1 -12 -2 -26 -2
-17 0 -22 2 -13 7 10 7 39 3 39 -5z m30 3 c0 -10 3 -9 9 1 6 9 9 5 9 -13 0
-30 -13 -42 -24 -25 -4 8 -3 9 4 5 7 -4 12 -2 12 4 0 6 -7 13 -15 16 -17 7
-20 24 -5 24 6 0 10 -6 10 -12z m-1670 -33 c-7 -9 -15 -13 -19 -10 -3 3 1 10
9 15 21 14 24 12 10 -5z m1650 5 c0 -5 -2 -10 -4 -10 -3 0 -8 5 -11 10 -3 6
-1 10 4 10 6 0 11 -4 11 -10z m-1205 -49 c3 -5 2 -12 -3 -15 -5 -3 -9 1 -9 9
0 17 3 19 12 6z m-514 -124 c-6 -8 -9 -16 -6 -19 3 -2 -2 -5 -10 -5 -13 0 -13
3 2 19 19 21 31 25 14 5z m34 -26 c3 -5 2 -12 -3 -15 -5 -3 -9 1 -9 9 0 17 3
19 12 6z m495 -124 c0 -2 -10 -12 -22 -23 l-23 -19 19 23 c18 21 26 27 26 19z
m-75 -176 c3 -5 2 -12 -3 -15 -5 -3 -9 1 -9 9 0 17 3 19 12 6z m3 -196 c-3 -3
-9 2 -12 12 -6 14 -5 15 5 6 7 -7 10 -15 7 -18z m-54 -39 c-3 -8 -13 -17 -22
-21 -13 -5 -13 -2 3 15 21 24 26 25 19 6z m139 -153 c-5 -12 -3 -14 7 -8 9 6
11 4 5 -4 -5 -9 -11 -9 -17 -3 -6 6 -7 15 -4 21 11 17 16 13 9 -6z m952 -361
c-3 -3 -11 0 -18 7 -9 10 -8 11 6 5 10 -3 15 -9 12 -12z"/>
<path d="M3802 3871 c-11 -7 -11 -9 0 -14 9 -3 15 1 15 9 0 8 -1 14 -1 14 -1
0 -7 -4 -14 -9z"/>
<path d="M3990 3870 c-9 -6 -10 -10 -3 -10 6 0 15 5 18 10 8 12 4 12 -15 0z"/>
<path d="M4070 3870 c8 -5 20 -10 25 -10 6 0 3 5 -5 10 -8 5 -19 10 -25 10 -5
0 -3 -5 5 -10z"/>
<path d="M4155 3871 c-3 -5 -2 -12 3 -15 5 -3 9 1 9 9 0 17 -3 19 -12 6z"/>
<path d="M1245 3860 c-3 -6 1 -7 9 -4 18 7 21 14 7 14 -6 0 -13 -4 -16 -10z"/>
<path d="M1295 3860 c3 -5 8 -10 11 -10 2 0 4 5 4 10 0 6 -5 10 -11 10 -5 0
-7 -4 -4 -10z"/>
<path d="M3711 3849 c-13 -11 -19 -19 -13 -19 5 0 15 6 22 14 6 8 18 12 26 9
8 -3 14 -3 14 0 0 15 -29 12 -49 -4z"/>
<path d="M3893 3855 c0 -8 4 -12 9 -9 5 3 6 10 3 15 -9 13 -12 11 -12 -6z"/>
<path d="M4200 3860 c-9 -6 -10 -10 -3 -10 6 0 15 5 18 10 8 12 4 12 -15 0z"/>
<path d="M3666 3848 c3 -4 -9 -5 -26 -3 -16 2 -30 0 -30 -5 0 -11 51 -7 75 7
20 12 20 12 -2 10 -12 0 -20 -5 -17 -9z"/>
<path d="M3760 3840 c-12 -7 -10 -9 8 -7 12 0 22 5 22 9 0 11 -12 10 -30 -2z"/>
<path d="M3993 3834 c0 -9 4 -11 12 -4 7 5 14 9 16 7 2 -1 3 0 1 2 -7 11 -29
7 -29 -5z"/>
<path d="M3546 3832 c-2 -4 0 -14 6 -22 8 -12 9 -12 4 3 -3 9 -1 17 4 17 6 0
10 -4 10 -10 0 -5 5 -10 11 -10 8 0 8 5 -1 15 -14 17 -26 19 -34 7z"/>
<path d="M1177 3818 c6 -7 9 -21 8 -31 -3 -14 0 -15 9 -8 7 6 15 8 19 5 3 -3
4 2 2 13 -2 10 -4 23 -4 28 -1 6 -6 3 -11 -5 -6 -10 -10 -11 -10 -2 0 6 -5 12
-11 12 -8 0 -8 -4 -2 -12z"/>
<path d="M3463 3819 c-39 -11 -45 -22 -7 -13 16 4 25 3 21 -3 -3 -5 -2 -14 2
-21 4 -8 11 -5 20 9 9 16 10 19 0 13 -9 -5 -10 -2 -6 9 3 10 5 17 4 16 -1 0
-17 -5 -34 -10z"/>
<path d="M3723 3815 c-3 -9 -3 -18 -1 -21 3 -3 8 4 11 16 6 23 -1 27 -10 5z"/>
<path d="M3801 3821 c-8 -5 -9 -11 -3 -15 5 -3 12 1 16 9 6 17 6 18 -13 6z"/>
<path d="M3887 3819 c7 -7 15 -10 18 -7 3 3 -2 9 -12 12 -14 6 -15 5 -6 -5z"/>
<path d="M3593 3805 c-10 -11 -9 -13 6 -12 11 1 17 7 14 14 -6 16 -5 16 -20
-2z"/>
<path d="M3630 3806 c0 -8 4 -17 9 -20 5 -4 7 3 4 14 -6 23 -13 26 -13 6z"/>
<path d="M3667 3807 c-3 -8 0 -14 7 -14 7 0 13 6 13 14 0 7 -4 13 -8 13 -4 0
-9 -6 -12 -13z"/>
<path d="M1786 3798 c3 -5 10 -6 15 -3 13 9 11 12 -6 12 -8 0 -12 -4 -9 -9z"/>
<path d="M3405 3800 c3 -5 -9 -8 -30 -6 -21 2 -32 0 -29 -6 4 -6 -1 -8 -13 -4
-14 4 -23 0 -32 -17 -13 -25 -54 -36 -44 -11 3 7 9 12 13 9 4 -3 14 3 21 12
12 15 12 16 -1 8 -8 -5 -26 -11 -40 -12 -14 -2 -31 -4 -38 -5 -8 -1 -9 -5 -3
-11 7 -7 15 -6 26 3 8 7 15 8 15 2 0 -14 -26 -33 -41 -30 -8 2 -18 12 -22 22
-6 15 -10 17 -19 8 -7 -7 -22 -12 -33 -12 -12 0 -25 -3 -28 -7 -7 -7 -50 -15
-79 -14 -10 0 -18 -3 -18 -7 0 -4 -16 -8 -37 -9 -33 -2 -75 -23 -44 -23 7 0 9
-4 6 -10 -9 -15 -25 -12 -25 5 0 8 -9 15 -20 15 -11 0 -20 -7 -20 -15 0 -8 5
-15 11 -15 5 0 7 5 4 10 -10 16 1 11 16 -7 8 -9 9 -14 3 -10 -7 4 -17 0 -24
-8 -7 -8 -16 -12 -21 -9 -5 3 -9 0 -9 -6 0 -6 -5 -8 -11 -4 -8 4 -7 9 2 16 11
8 11 9 -1 5 -8 -2 -14 -10 -12 -16 2 -11 1 -12 -35 -16 -16 -2 -20 2 -16 14 4
13 3 13 -5 2 -6 -8 -17 -11 -27 -8 -9 4 -13 3 -10 -2 5 -10 -12 -25 -30 -26
-5 -1 -9 -7 -8 -15 2 -8 -4 -5 -13 8 -19 26 -30 28 -38 6 -3 -8 -2 -12 4 -9 6
3 13 0 16 -8 6 -16 20 -17 42 -4 6 5 16 6 21 3 5 -3 11 3 14 14 5 20 27 28 27
11 0 -11 21 -8 63 8 15 6 31 10 35 10 4 -1 9 0 12 1 8 3 32 8 65 15 17 3 31
10 33 15 2 5 14 6 28 4 17 -3 24 0 24 11 0 8 5 15 11 15 5 0 8 -3 6 -7 -3 -5
10 -8 29 -8 29 0 32 2 18 12 -9 6 -22 9 -28 7 -7 -3 -13 2 -13 11 0 19 5 19
44 -4 33 -21 51 -17 32 6 -6 7 -8 13 -3 13 5 0 2 5 -6 10 -11 7 -7 10 18 10
19 0 32 5 32 13 1 6 7 -1 15 -18 7 -16 14 -23 14 -15 1 13 2 13 11 0 8 -13 11
-12 23 4 11 14 16 16 22 6 6 -10 9 -9 16 1 6 10 11 7 19 -11 10 -23 10 -23 6
-2 -2 12 4 32 15 45 10 12 18 17 19 10 0 -6 -4 -15 -10 -18 -5 -3 -10 -12 -10
-18 0 -7 11 2 24 18 25 31 46 38 59 20 4 -6 10 -5 17 5 13 20 13 30 -1 30 -5
0 -8 -4 -4 -10z m-286 -93 c11 -17 11 -17 -16 -1 -15 10 -30 19 -32 20 -2 2 6
2 17 1 11 0 25 -9 31 -20z m-87 -16 c-15 -15 -18 -15 -30 -1 -10 13 -11 12 -5
-5 3 -11 3 -17 -2 -13 -4 4 -14 3 -21 -2 -6 -6 -23 -13 -35 -16 -13 -3 -28 -6
-34 -7 -5 -2 -17 -7 -25 -12 -13 -8 -13 -7 -1 8 7 9 17 15 21 12 9 -6 51 24
46 34 -3 3 3 7 12 8 27 2 51 9 58 15 3 4 12 4 19 2 11 -4 10 -9 -3 -23z"/>
<path d="M3518 3792 c-16 -17 -16 -18 1 -18 9 0 18 8 18 18 2 21 2 21 -19 0z"/>
<path d="M3425 3773 c-3 -9 -3 -18 0 -21 3 -3 5 -1 5 5 0 6 7 14 16 17 12 5
15 2 10 -9 -3 -10 -2 -13 5 -10 5 4 8 12 6 18 -5 17 -35 17 -42 0z"/>
<path d="M3555 3780 c3 -5 8 -10 11 -10 2 0 4 5 4 10 0 6 -5 10 -11 10 -5 0
-7 -4 -4 -10z"/>
<path d="M916 3763 c-6 -14 -5 -15 5 -6 7 7 10 15 7 18 -3 3 -9 -2 -12 -12z"/>
<path d="M3350 3748 c-11 -22 -10 -22 4 -4 15 18 21 15 17 -7 -1 -5 3 -6 8 -2
11 6 3 35 -10 35 -4 0 -13 -10 -19 -22z"/>
<path d="M4070 3760 c0 -5 5 -10 11 -10 5 0 7 5 4 10 -3 6 -8 10 -11 10 -2 0
-4 -4 -4 -10z"/>
<path d="M3143 3718 c2 -7 8 -13 13 -13 5 0 15 -4 22 -9 11 -7 11 -4 0 13 -14
22 -42 29 -35 9z"/>
<path d="M3340 3702 c0 -4 11 -8 25 -8 28 0 24 8 -5 13 -11 2 -20 -1 -20 -5z"/>
<path d="M2836 3682 c-2 -4 4 -13 15 -20 21 -13 22 -12 13 12 -7 17 -20 21
-28 8z"/>
<path d="M3431 3674 c0 -11 3 -14 6 -6 3 7 2 16 -1 19 -3 4 -6 -2 -5 -13z"/>
<path d="M3470 3666 c0 -2 7 -7 16 -10 8 -3 12 -2 9 4 -6 10 -25 14 -25 6z"/>
<path d="M2335 3650 c3 -5 8 -10 11 -10 2 0 4 5 4 10 0 6 -5 10 -11 10 -5 0
-7 -4 -4 -10z"/>
<path d="M3576 3647 c3 -10 9 -15 12 -12 3 3 0 11 -7 18 -10 9 -11 8 -5 -6z"/>
<path d="M2790 3640 c0 -5 5 -10 10 -10 6 0 10 5 10 10 0 6 -4 10 -10 10 -5 0
-10 -4 -10 -10z"/>
<path d="M3630 3640 c0 -5 5 -10 11 -10 5 0 7 5 4 10 -3 6 -8 10 -11 10 -2 0
-4 -4 -4 -10z"/>
<path d="M3036 3607 c3 -10 9 -15 12 -12 3 3 0 11 -7 18 -10 9 -11 8 -5 -6z"/>
<path d="M3730 3599 c0 -5 5 -7 10 -4 6 3 10 8 10 11 0 2 -4 4 -10 4 -5 0 -10
-5 -10 -11z"/>
<path d="M4307 3599 c7 -7 15 -10 18 -7 3 3 -2 9 -12 12 -14 6 -15 5 -6 -5z"/>
<path d="M836 3527 c3 -10 9 -15 12 -12 3 3 0 11 -7 18 -10 9 -11 8 -5 -6z"/>
<path d="M2590 3526 c0 -2 7 -7 16 -10 8 -3 12 -2 9 4 -6 10 -25 14 -25 6z"/>
<path d="M2580 3500 c0 -5 5 -10 11 -10 5 0 7 5 4 10 -3 6 -8 10 -11 10 -2 0
-4 -4 -4 -10z"/>
<path d="M2775 3480 c-3 -5 -1 -10 4 -10 6 0 11 5 11 10 0 6 -2 10 -4 10 -3 0
-8 -4 -11 -10z"/>
<path d="M2830 3478 c0 -4 4 -8 9 -8 6 0 12 4 15 8 3 5 -1 9 -9 9 -8 0 -15 -4
-15 -9z"/>
<path d="M2930 3486 c0 -2 8 -10 18 -17 15 -13 16 -12 3 4 -13 16 -21 21 -21
13z"/>
<path d="M2967 3479 c7 -7 15 -10 18 -7 3 3 -2 9 -12 12 -14 6 -15 5 -6 -5z"/>
<path d="M826 3462 c-2 -4 -1 -13 3 -20 4 -8 11 -5 19 8 10 16 10 20 -2 20 -8
0 -17 -4 -20 -8z"/>
<path d="M3015 3461 c3 -3 17 -6 31 -7 13 0 22 2 19 5 -3 3 -17 6 -31 7 -13 0
-22 -2 -19 -5z"/>
<path d="M4375 3420 c3 -5 8 -10 11 -10 2 0 4 5 4 10 0 6 -5 10 -11 10 -5 0
-7 -4 -4 -10z"/>
<path d="M4200 3411 c0 -6 4 -13 10 -16 6 -3 7 1 4 9 -7 18 -14 21 -14 7z"/>
<path d="M4233 3406 c0 -15 22 -15 34 0 4 5 4 6 -1 2 -5 -4 -14 -3 -21 2 -8 7
-12 5 -12 -4z"/>
<path d="M4356 3407 c3 -10 9 -15 12 -12 3 3 0 11 -7 18 -10 9 -11 8 -5 -6z"/>
<path d="M4054 3399 c-2 -5 -10 -7 -17 -5 -7 1 -9 1 -4 -1 4 -3 4 -10 0 -16
-3 -7 2 -5 13 4 10 8 29 14 42 13 12 -1 20 1 17 4 -9 9 -45 9 -51 1z"/>
<path d="M4125 3401 c-2 -4 12 -7 30 -7 19 0 32 3 29 5 -7 8 -54 9 -59 2z"/>
<path d="M3734 3390 c-6 -6 -36 -12 -66 -13 -45 -2 -52 -4 -39 -14 10 -7 18
-8 22 -1 3 5 9 9 13 9 37 -5 75 1 80 14 6 18 4 19 -10 5z"/>
<path d="M3894 3389 c-3 -5 -11 -6 -17 -3 -7 4 -9 4 -5 -1 4 -4 2 -15 -4 -24
-7 -9 -2 -7 11 4 13 11 32 19 42 17 25 -4 24 4 -1 11 -11 3 -23 1 -26 -4z"/>
<path d="M3963 3385 c6 -7 15 -11 20 -8 13 8 7 19 -13 20 -16 1 -17 -1 -7 -12z"/>
<path d="M3758 3379 c-5 -3 13 -5 41 -5 27 1 53 5 56 8 8 8 -84 5 -97 -3z"/>
<path d="M4275 3380 c3 -5 8 -10 11 -10 2 0 4 5 4 10 0 6 -5 10 -11 10 -5 0
-7 -4 -4 -10z"/>
<path d="M2544 3369 c-3 -6 -1 -16 6 -22 10 -9 11 -9 5 2 -4 8 -2 17 6 22 9 6
10 9 2 9 -6 0 -15 -5 -19 -11z"/>
<path d="M3563 3364 c-3 -8 -1 -20 5 -26 8 -8 9 -4 5 12 -4 17 -2 21 8 18 8
-3 13 -10 12 -15 -1 -5 7 -9 18 -9 19 0 18 1 -3 18 -29 22 -37 22 -45 2z"/>
<path d="M3400 3360 c-13 -8 -12 -10 3 -10 9 0 17 5 17 10 0 12 -1 12 -20 0z"/>
<path d="M3450 3360 c0 -5 5 -10 11 -10 5 0 7 5 4 10 -3 6 -8 10 -11 10 -2 0
-4 -4 -4 -10z"/>
<path d="M3530 3359 c0 -5 5 -7 10 -4 6 3 10 8 10 11 0 2 -4 4 -10 4 -5 0 -10
-5 -10 -11z"/>
<path d="M3815 3340 c-3 -5 -1 -10 4 -10 6 0 11 5 11 10 0 6 -2 10 -4 10 -3 0
-8 -4 -11 -10z"/>
<path d="M3910 3336 c0 -2 8 -10 18 -17 15 -13 16 -12 3 4 -13 16 -21 21 -21
13z"/>
<path d="M3989 3323 c-13 -16 -12 -17 4 -4 16 13 21 21 13 21 -2 0 -10 -8 -17
-17z"/>
<path d="M3450 3318 c0 -10 9 -9 35 2 17 8 16 8 -7 7 -16 -1 -28 -5 -28 -9z"/>
<path d="M3535 3320 c-3 -6 1 -7 9 -4 18 7 21 14 7 14 -6 0 -13 -4 -16 -10z"/>
<path d="M3955 3320 c3 -5 8 -10 11 -10 2 0 4 5 4 10 0 6 -5 10 -11 10 -5 0
-7 -4 -4 -10z"/>
<path d="M3630 3296 c0 -2 8 -10 18 -17 15 -13 16 -12 3 4 -13 16 -21 21 -21
13z"/>
<path d="M3585 3260 c-3 -6 1 -7 9 -4 18 7 21 14 7 14 -6 0 -13 -4 -16 -10z"/>
<path d="M3660 3260 c-9 -6 -10 -10 -3 -10 6 0 15 5 18 10 8 12 4 12 -15 0z"/>
<path d="M3695 3260 c3 -5 8 -10 11 -10 2 0 4 5 4 10 0 6 -5 10 -11 10 -5 0
-7 -4 -4 -10z"/>
<path d="M3548 3253 c7 -3 16 -2 19 1 4 3 -2 6 -13 5 -11 0 -14 -3 -6 -6z"/>
<path d="M3726 3202 c-3 -5 1 -9 9 -9 8 0 12 4 9 9 -3 4 -7 8 -9 8 -2 0 -6 -4
-9 -8z"/>
<path d="M1285 2841 c-3 -6 -1 -11 4 -11 6 0 11 -4 11 -10 0 -5 -6 -7 -13 -4
-17 6 -52 -32 -38 -41 6 -3 11 1 11 10 0 9 4 13 10 10 5 -3 19 0 29 7 16 12
17 16 6 31 -8 12 -15 14 -20 8z"/>
<path d="M1330 2806 c0 -10 4 -15 9 -12 5 4 12 0 14 -6 4 -8 6 -9 6 -2 1 6 -6
17 -14 24 -12 10 -15 9 -15 -4z"/>
<path d="M1296 2782 c-3 -5 1 -9 9 -9 8 0 12 4 9 9 -3 4 -7 8 -9 8 -2 0 -6 -4
-9 -8z"/>
<path d="M1093 2698 c-11 -12 -20 -15 -26 -9 -12 12 -47 -4 -47 -22 0 -7 4 -6
10 3 5 8 10 11 10 5 0 -5 5 -3 10 5 6 10 10 11 10 3 0 -18 27 -16 34 2 3 8 12
15 20 15 8 0 17 4 20 8 10 17 -24 8 -41 -10z"/>
<path d="M1110 2686 c0 -2 7 -7 16 -10 8 -3 12 -2 9 4 -6 10 -25 14 -25 6z"/>
<path d="M1891 2424 c0 -11 3 -14 6 -6 3 7 2 16 -1 19 -3 4 -6 -2 -5 -13z"/>
<path d="M2375 2291 c-3 -5 -2 -12 3 -15 5 -3 9 1 9 9 0 17 -3 19 -12 6z"/>
</g>
</svg>
